<mxfile host="65bd71144e">
    <diagram id="UibdG1P6iw8BnFFcsrGG" name="Page-1">
        <mxGraphModel dx="1656" dy="959" grid="1" gridSize="10" guides="1" tooltips="1" connect="1" arrows="1" fold="1" page="1" pageScale="1" pageWidth="850" pageHeight="1100" math="0" shadow="0">
            <root>
                <mxCell id="0"/>
                <mxCell id="1" parent="0"/>
                <mxCell id="2" value="" style="rounded=1;whiteSpace=wrap;html=1;fontFamily=Lucida Console;align=right;shadow=0;sketch=1;fillStyle=cross-hatch;fillColor=none;" parent="1" vertex="1">
                    <mxGeometry x="0.29" y="40" width="160" height="40" as="geometry"/>
                </mxCell>
                <mxCell id="30" value="" style="endArrow=none;html=1;rounded=0;" parent="1" edge="1">
                    <mxGeometry width="50" height="50" relative="1" as="geometry">
                        <mxPoint x="0.29" y="30" as="sourcePoint"/>
                        <mxPoint x="160.29" y="30" as="targetPoint"/>
                        <Array as="points">
                            <mxPoint x="0.29" y="20"/>
                            <mxPoint x="160.29" y="20"/>
                        </Array>
                    </mxGeometry>
                </mxCell>
                <mxCell id="31" value="64 MiB" style="edgeLabel;html=1;align=center;verticalAlign=middle;resizable=0;points=[];fontFamily=Lucida Console;fontSize=12;" parent="30" vertex="1" connectable="0">
                    <mxGeometry x="0.7778" y="1" relative="1" as="geometry">
                        <mxPoint x="20" y="-9" as="offset"/>
                    </mxGeometry>
                </mxCell>
                <mxCell id="32" value="0 MiB" style="edgeLabel;html=1;align=center;verticalAlign=middle;resizable=0;points=[];fontFamily=Lucida Console;fontSize=12;" parent="30" vertex="1" connectable="0">
                    <mxGeometry x="-0.7143" y="2" relative="1" as="geometry">
                        <mxPoint x="-16" y="-8" as="offset"/>
                    </mxGeometry>
                </mxCell>
                <mxCell id="33" value="" style="endArrow=none;html=1;rounded=0;" parent="1" edge="1">
                    <mxGeometry width="50" height="50" relative="1" as="geometry">
                        <mxPoint x="180.29" y="30" as="sourcePoint"/>
                        <mxPoint x="340.29" y="30" as="targetPoint"/>
                        <Array as="points">
                            <mxPoint x="180.29" y="20"/>
                            <mxPoint x="340.29" y="20"/>
                        </Array>
                    </mxGeometry>
                </mxCell>
                <mxCell id="34" value="128 MiB" style="edgeLabel;html=1;align=center;verticalAlign=middle;resizable=0;points=[];fontFamily=Lucida Console;fontSize=12;" parent="33" vertex="1" connectable="0">
                    <mxGeometry x="0.7778" y="1" relative="1" as="geometry">
                        <mxPoint x="10" y="-9" as="offset"/>
                    </mxGeometry>
                </mxCell>
                <mxCell id="36" value="" style="rounded=1;whiteSpace=wrap;html=1;fontFamily=Lucida Console;align=right;shadow=0;sketch=1;fillStyle=cross-hatch;fillColor=none;" parent="1" vertex="1">
                    <mxGeometry x="0.28999999999999915" y="120" width="160" height="40" as="geometry"/>
                </mxCell>
                <mxCell id="37" value="" style="rounded=1;whiteSpace=wrap;html=1;fontFamily=Lucida Console;align=right;shadow=0;sketch=1;fillStyle=cross-hatch;fillColor=#666666;" parent="1" vertex="1">
                    <mxGeometry x="0.29" y="120" width="159.71" height="40" as="geometry"/>
                </mxCell>
                <mxCell id="43" value="b0" style="rounded=0;whiteSpace=wrap;html=1;fontFamily=Lucida Console;align=center;strokeColor=none;fillColor=none;fontSize=12;" parent="1" vertex="1">
                    <mxGeometry x="50.15" y="160" width="60" height="40" as="geometry"/>
                </mxCell>
                <mxCell id="48" value="" style="rounded=1;whiteSpace=wrap;html=1;fontFamily=Lucida Console;align=right;shadow=0;sketch=1;fillStyle=cross-hatch;fillColor=none;" parent="1" vertex="1">
                    <mxGeometry x="0.28999999999999915" y="200" width="160" height="40" as="geometry"/>
                </mxCell>
                <mxCell id="49" value="" style="rounded=1;whiteSpace=wrap;html=1;fontFamily=Lucida Console;align=right;shadow=0;sketch=1;fillStyle=cross-hatch;fillColor=#666666;" parent="1" vertex="1">
                    <mxGeometry x="0.29" y="200" width="159.71" height="40" as="geometry"/>
                </mxCell>
                <mxCell id="55" value="b0" style="rounded=0;whiteSpace=wrap;html=1;fontFamily=Lucida Console;align=center;strokeColor=none;fillColor=none;fontSize=12;" parent="1" vertex="1">
                    <mxGeometry x="50.29" y="240" width="60" height="40" as="geometry"/>
                </mxCell>
                <mxCell id="56" value="b1" style="rounded=0;whiteSpace=wrap;html=1;fontFamily=Lucida Console;align=center;strokeColor=none;fillColor=none;fontSize=12;" parent="1" vertex="1">
                    <mxGeometry x="180.29" y="240" width="119.71" height="40" as="geometry"/>
                </mxCell>
                <mxCell id="60" value="" style="rounded=1;whiteSpace=wrap;html=1;fontFamily=Lucida Console;align=right;shadow=0;sketch=1;fillStyle=cross-hatch;fillColor=none;" parent="1" vertex="1">
                    <mxGeometry x="0.28999999999999915" y="280" width="160" height="40" as="geometry"/>
                </mxCell>
                <mxCell id="63" value="" style="rounded=1;whiteSpace=wrap;html=1;fontFamily=Lucida Console;align=right;shadow=0;sketch=1;fillStyle=cross-hatch;fillColor=none;" parent="1" vertex="1">
                    <mxGeometry x="180.29" y="280" width="160" height="40" as="geometry"/>
                </mxCell>
                <mxCell id="64" value="" style="rounded=1;whiteSpace=wrap;html=1;fontFamily=Lucida Console;align=right;shadow=0;sketch=1;fillStyle=cross-hatch;fillColor=#666666;" parent="1" vertex="1">
                    <mxGeometry x="180.29" y="280" width="119.71" height="40" as="geometry"/>
                </mxCell>
                <mxCell id="72" value="" style="rounded=1;whiteSpace=wrap;html=1;fontFamily=Lucida Console;align=right;shadow=0;sketch=1;fillStyle=cross-hatch;fillColor=none;" parent="1" vertex="1">
                    <mxGeometry x="0.28999999999999915" y="360" width="160" height="40" as="geometry"/>
                </mxCell>
                <mxCell id="75" value="" style="rounded=1;whiteSpace=wrap;html=1;fontFamily=Lucida Console;align=right;shadow=0;sketch=1;fillStyle=cross-hatch;fillColor=none;" parent="1" vertex="1">
                    <mxGeometry x="180.29" y="360" width="160" height="40" as="geometry"/>
                </mxCell>
                <mxCell id="84" value="" style="rounded=1;whiteSpace=wrap;html=1;fontFamily=Lucida Console;align=right;shadow=0;sketch=1;fillStyle=cross-hatch;fillColor=none;" parent="1" vertex="1">
                    <mxGeometry x="0.28999999999999915" y="440" width="160" height="40" as="geometry"/>
                </mxCell>
                <mxCell id="85" value="" style="rounded=1;whiteSpace=wrap;html=1;fontFamily=Lucida Console;align=right;shadow=0;sketch=1;fillStyle=cross-hatch;fillColor=#666666;" parent="1" vertex="1">
                    <mxGeometry x="0.29" y="440" width="159.71" height="40" as="geometry"/>
                </mxCell>
                <mxCell id="87" value="" style="rounded=1;whiteSpace=wrap;html=1;fontFamily=Lucida Console;align=right;shadow=0;sketch=1;fillStyle=cross-hatch;fillColor=none;" parent="1" vertex="1">
                    <mxGeometry x="180.29" y="440" width="160" height="40" as="geometry"/>
                </mxCell>
                <mxCell id="96" value="" style="rounded=1;whiteSpace=wrap;html=1;fontFamily=Lucida Console;align=right;shadow=0;sketch=1;fillStyle=cross-hatch;fillColor=none;" parent="1" vertex="1">
                    <mxGeometry x="0.28999999999999915" y="520" width="160" height="40" as="geometry"/>
                </mxCell>
                <mxCell id="97" value="&lt;pre&gt;&lt;span class=&quot;n&quot;&gt;createStackMemoryPool()&lt;/span&gt;&lt;span class=&quot;p&quot;&gt;&lt;/span&gt;&lt;/pre&gt;" style="rounded=0;whiteSpace=wrap;html=1;fontFamily=Lucida Console;align=right;strokeColor=none;fillColor=none;fontSize=12;" parent="1" vertex="1">
                    <mxGeometry x="-200" y="40" width="200" height="40" as="geometry"/>
                </mxCell>
                <mxCell id="98" value="&lt;pre&gt;&lt;span class=&quot;n&quot;&gt;allocateBuffer(1024*1024*64)&lt;/span&gt;&lt;span class=&quot;p&quot;&gt;&lt;/span&gt;&lt;/pre&gt;" style="rounded=0;whiteSpace=wrap;html=1;fontFamily=Lucida Console;align=right;strokeColor=none;fillColor=none;fontSize=12;" parent="1" vertex="1">
                    <mxGeometry x="-200" y="120" width="200" height="40" as="geometry"/>
                </mxCell>
                <mxCell id="99" value="&lt;pre&gt;&lt;span class=&quot;n&quot;&gt;allocateBuffer(1024*1024*48)&lt;/span&gt;&lt;span class=&quot;p&quot;&gt;&lt;/span&gt;&lt;/pre&gt;" style="rounded=0;whiteSpace=wrap;html=1;fontFamily=Lucida Console;align=right;strokeColor=none;fillColor=none;fontSize=12;" parent="1" vertex="1">
                    <mxGeometry x="-200" y="200" width="200" height="40" as="geometry"/>
                </mxCell>
                <mxCell id="100" value="&lt;pre&gt;&lt;span class=&quot;n&quot;&gt;allocateBuffer(1024*1024*32)&lt;/span&gt;&lt;span class=&quot;p&quot;&gt;&lt;/span&gt;&lt;/pre&gt;" style="rounded=0;whiteSpace=wrap;html=1;fontFamily=Lucida Console;align=right;strokeColor=none;fillColor=none;fontSize=12;" parent="1" vertex="1">
                    <mxGeometry x="-200" y="280" width="200" height="40" as="geometry"/>
                </mxCell>
                <mxCell id="101" value="&lt;pre&gt;&lt;span class=&quot;n&quot;&gt;allocateBuffer(1024*1024*32)&lt;/span&gt;&lt;span class=&quot;p&quot;&gt;&lt;/span&gt;&lt;/pre&gt;" style="rounded=0;whiteSpace=wrap;html=1;fontFamily=Lucida Console;align=right;strokeColor=none;fillColor=none;fontSize=12;" parent="1" vertex="1">
                    <mxGeometry x="-200" y="360" width="200" height="40" as="geometry"/>
                </mxCell>
                <mxCell id="102" value="&lt;pre&gt;&lt;span class=&quot;n&quot;&gt;b3.reset()&lt;/span&gt;&lt;span class=&quot;p&quot;&gt;&lt;/span&gt;&lt;/pre&gt;" style="rounded=0;whiteSpace=wrap;html=1;fontFamily=Lucida Console;align=right;strokeColor=none;fillColor=none;fontSize=12;" parent="1" vertex="1">
                    <mxGeometry x="-200" y="440" width="200" height="40" as="geometry"/>
                </mxCell>
                <mxCell id="103" value="&lt;pre&gt;&lt;span class=&quot;n&quot;&gt;b1.reset()&lt;/span&gt;&lt;span class=&quot;p&quot;&gt;&lt;/span&gt;&lt;/pre&gt;" style="rounded=0;whiteSpace=wrap;html=1;fontFamily=Lucida Console;align=right;strokeColor=none;fillColor=none;fontSize=12;" parent="1" vertex="1">
                    <mxGeometry x="-199.71" y="520" width="200" height="40" as="geometry"/>
                </mxCell>
                <mxCell id="104" value="" style="endArrow=none;html=1;rounded=0;" edge="1" parent="1">
                    <mxGeometry width="50" height="50" relative="1" as="geometry">
                        <mxPoint x="360" y="30" as="sourcePoint"/>
                        <mxPoint x="520" y="30" as="targetPoint"/>
                        <Array as="points">
                            <mxPoint x="360" y="20"/>
                            <mxPoint x="520" y="20"/>
                        </Array>
                    </mxGeometry>
                </mxCell>
                <mxCell id="105" value="192 MiB" style="edgeLabel;html=1;align=center;verticalAlign=middle;resizable=0;points=[];fontFamily=Lucida Console;fontSize=12;" vertex="1" connectable="0" parent="104">
                    <mxGeometry x="0.7778" y="1" relative="1" as="geometry">
                        <mxPoint x="10" y="-9" as="offset"/>
                    </mxGeometry>
                </mxCell>
                <mxCell id="106" value="" style="rounded=1;whiteSpace=wrap;html=1;fontFamily=Lucida Console;align=right;shadow=0;sketch=1;fillStyle=cross-hatch;fillColor=none;" vertex="1" parent="1">
                    <mxGeometry x="180.29" y="40" width="160" height="40" as="geometry"/>
                </mxCell>
                <mxCell id="107" value="" style="rounded=1;whiteSpace=wrap;html=1;fontFamily=Lucida Console;align=right;shadow=0;sketch=1;fillStyle=cross-hatch;fillColor=none;" vertex="1" parent="1">
                    <mxGeometry x="360" y="40" width="160" height="40" as="geometry"/>
                </mxCell>
                <mxCell id="108" value="" style="rounded=1;whiteSpace=wrap;html=1;fontFamily=Lucida Console;align=right;shadow=0;sketch=1;fillStyle=cross-hatch;fillColor=none;" vertex="1" parent="1">
                    <mxGeometry x="180.29" y="120" width="160" height="40" as="geometry"/>
                </mxCell>
                <mxCell id="109" value="" style="rounded=1;whiteSpace=wrap;html=1;fontFamily=Lucida Console;align=right;shadow=0;sketch=1;fillStyle=cross-hatch;fillColor=none;" vertex="1" parent="1">
                    <mxGeometry x="360" y="120" width="160" height="40" as="geometry"/>
                </mxCell>
                <mxCell id="110" value="" style="rounded=1;whiteSpace=wrap;html=1;fontFamily=Lucida Console;align=right;shadow=0;sketch=1;fillStyle=cross-hatch;fillColor=none;" vertex="1" parent="1">
                    <mxGeometry x="180.29" y="200" width="160" height="40" as="geometry"/>
                </mxCell>
                <mxCell id="111" value="" style="rounded=1;whiteSpace=wrap;html=1;fontFamily=Lucida Console;align=right;shadow=0;sketch=1;fillStyle=cross-hatch;fillColor=#666666;" vertex="1" parent="1">
                    <mxGeometry x="180.29" y="200" width="119.71" height="40" as="geometry"/>
                </mxCell>
                <mxCell id="112" value="" style="rounded=1;whiteSpace=wrap;html=1;fontFamily=Lucida Console;align=right;shadow=0;sketch=1;fillStyle=cross-hatch;fillColor=none;" vertex="1" parent="1">
                    <mxGeometry x="360" y="200" width="160" height="40" as="geometry"/>
                </mxCell>
                <mxCell id="113" value="" style="rounded=1;whiteSpace=wrap;html=1;fontFamily=Lucida Console;align=right;shadow=0;sketch=1;fillStyle=cross-hatch;fillColor=none;" vertex="1" parent="1">
                    <mxGeometry x="360" y="280" width="160" height="40" as="geometry"/>
                </mxCell>
                <mxCell id="114" value="" style="rounded=1;whiteSpace=wrap;html=1;fontFamily=Lucida Console;align=right;shadow=0;sketch=1;fillStyle=cross-hatch;fillColor=none;" vertex="1" parent="1">
                    <mxGeometry x="360" y="360" width="160" height="40" as="geometry"/>
                </mxCell>
                <mxCell id="115" value="" style="rounded=1;whiteSpace=wrap;html=1;fontFamily=Lucida Console;align=right;shadow=0;sketch=1;fillStyle=cross-hatch;fillColor=none;" vertex="1" parent="1">
                    <mxGeometry x="360" y="440" width="160" height="40" as="geometry"/>
                </mxCell>
                <mxCell id="116" value="" style="rounded=1;whiteSpace=wrap;html=1;fontFamily=Lucida Console;align=right;shadow=0;sketch=1;fillStyle=cross-hatch;fillColor=none;" vertex="1" parent="1">
                    <mxGeometry x="180.29" y="520" width="160" height="40" as="geometry"/>
                </mxCell>
                <mxCell id="117" value="" style="rounded=1;whiteSpace=wrap;html=1;fontFamily=Lucida Console;align=right;shadow=0;sketch=1;fillStyle=cross-hatch;fillColor=none;" vertex="1" parent="1">
                    <mxGeometry x="360" y="520" width="160" height="40" as="geometry"/>
                </mxCell>
                <mxCell id="118" value="" style="rounded=1;whiteSpace=wrap;html=1;fontFamily=Lucida Console;align=right;shadow=0;sketch=1;fillStyle=cross-hatch;fillColor=#666666;" vertex="1" parent="1">
                    <mxGeometry y="280" width="159.71" height="40" as="geometry"/>
                </mxCell>
                <mxCell id="119" value="" style="rounded=1;whiteSpace=wrap;html=1;fontFamily=Lucida Console;align=right;shadow=0;sketch=1;fillStyle=cross-hatch;fillColor=#666666;" vertex="1" parent="1">
                    <mxGeometry x="360" y="280" width="80" height="40" as="geometry"/>
                </mxCell>
                <mxCell id="120" value="" style="rounded=1;whiteSpace=wrap;html=1;fontFamily=Lucida Console;align=right;shadow=0;sketch=1;fillStyle=cross-hatch;fillColor=#666666;" vertex="1" parent="1">
                    <mxGeometry x="360" y="360" width="80" height="40" as="geometry"/>
                </mxCell>
                <mxCell id="121" value="" style="rounded=1;whiteSpace=wrap;html=1;fontFamily=Lucida Console;align=right;shadow=0;sketch=1;fillStyle=cross-hatch;fillColor=#666666;" vertex="1" parent="1">
                    <mxGeometry x="440" y="360" width="80" height="40" as="geometry"/>
                </mxCell>
                <mxCell id="122" value="" style="rounded=1;whiteSpace=wrap;html=1;fontFamily=Lucida Console;align=right;shadow=0;sketch=1;fillStyle=cross-hatch;fillColor=#666666;" vertex="1" parent="1">
                    <mxGeometry x="0.28999999999999915" y="360" width="159.71" height="40" as="geometry"/>
                </mxCell>
                <mxCell id="123" value="" style="rounded=1;whiteSpace=wrap;html=1;fontFamily=Lucida Console;align=right;shadow=0;sketch=1;fillStyle=cross-hatch;fillColor=#666666;" vertex="1" parent="1">
                    <mxGeometry x="180.57999999999998" y="360" width="119.71" height="40" as="geometry"/>
                </mxCell>
                <mxCell id="124" value="b1" style="rounded=0;whiteSpace=wrap;html=1;fontFamily=Lucida Console;align=center;strokeColor=none;fillColor=none;fontSize=12;" vertex="1" parent="1">
                    <mxGeometry x="180.29" y="320" width="119.71" height="40" as="geometry"/>
                </mxCell>
                <mxCell id="125" value="b1" style="rounded=0;whiteSpace=wrap;html=1;fontFamily=Lucida Console;align=center;strokeColor=none;fillColor=none;fontSize=12;" vertex="1" parent="1">
                    <mxGeometry x="180.57999999999998" y="400" width="119.71" height="40" as="geometry"/>
                </mxCell>
                <mxCell id="126" value="b0" style="rounded=0;whiteSpace=wrap;html=1;fontFamily=Lucida Console;align=center;strokeColor=none;fillColor=none;fontSize=12;" vertex="1" parent="1">
                    <mxGeometry x="49.86" y="320" width="60" height="40" as="geometry"/>
                </mxCell>
                <mxCell id="127" value="b0" style="rounded=0;whiteSpace=wrap;html=1;fontFamily=Lucida Console;align=center;strokeColor=none;fillColor=none;fontSize=12;" vertex="1" parent="1">
                    <mxGeometry x="49.85999999999999" y="400" width="60" height="40" as="geometry"/>
                </mxCell>
                <mxCell id="128" value="b0" style="rounded=0;whiteSpace=wrap;html=1;fontFamily=Lucida Console;align=center;strokeColor=none;fillColor=none;fontSize=12;" vertex="1" parent="1">
                    <mxGeometry x="49.85999999999999" y="480" width="60" height="40" as="geometry"/>
                </mxCell>
                <mxCell id="129" value="b1" style="rounded=0;whiteSpace=wrap;html=1;fontFamily=Lucida Console;align=center;strokeColor=none;fillColor=none;fontSize=12;" vertex="1" parent="1">
                    <mxGeometry x="180.57999999999998" y="480" width="119.71" height="40" as="geometry"/>
                </mxCell>
                <mxCell id="130" value="" style="rounded=1;whiteSpace=wrap;html=1;fontFamily=Lucida Console;align=right;shadow=0;sketch=1;fillStyle=cross-hatch;fillColor=#666666;" vertex="1" parent="1">
                    <mxGeometry x="180.57999999999998" y="440" width="119.71" height="40" as="geometry"/>
                </mxCell>
                <mxCell id="133" value="" style="rounded=1;whiteSpace=wrap;html=1;fontFamily=Lucida Console;align=right;shadow=0;sketch=1;fillStyle=cross-hatch;fillColor=#CC0000;" vertex="1" parent="1">
                    <mxGeometry x="0.5799999999999983" y="520" width="159.71" height="40" as="geometry"/>
                </mxCell>
                <mxCell id="134" value="b2" style="rounded=0;whiteSpace=wrap;html=1;fontFamily=Lucida Console;align=center;strokeColor=none;fillColor=none;fontSize=12;" vertex="1" parent="1">
                    <mxGeometry x="360" y="320" width="80" height="40" as="geometry"/>
                </mxCell>
                <mxCell id="135" value="b2" style="rounded=0;whiteSpace=wrap;html=1;fontFamily=Lucida Console;align=center;strokeColor=none;fillColor=none;fontSize=12;" vertex="1" parent="1">
                    <mxGeometry x="360" y="400" width="80" height="40" as="geometry"/>
                </mxCell>
                <mxCell id="136" value="b3" style="rounded=0;whiteSpace=wrap;html=1;fontFamily=Lucida Console;align=center;strokeColor=none;fillColor=none;fontSize=12;" vertex="1" parent="1">
                    <mxGeometry x="440" y="400" width="80" height="40" as="geometry"/>
                </mxCell>
                <mxCell id="137" value="" style="rounded=1;whiteSpace=wrap;html=1;fontFamily=Lucida Console;align=right;shadow=0;sketch=1;fillStyle=cross-hatch;fillColor=#666666;" vertex="1" parent="1">
                    <mxGeometry x="360" y="440" width="80" height="40" as="geometry"/>
                </mxCell>
                <mxCell id="138" value="b2" style="rounded=0;whiteSpace=wrap;html=1;fontFamily=Lucida Console;align=center;strokeColor=none;fillColor=none;fontSize=12;" vertex="1" parent="1">
                    <mxGeometry x="360" y="480" width="80" height="40" as="geometry"/>
                </mxCell>
                <mxCell id="139" value="" style="rounded=1;whiteSpace=wrap;html=1;fontFamily=Lucida Console;align=right;shadow=0;sketch=1;fillStyle=cross-hatch;fillColor=#CC0000;" vertex="1" parent="1">
                    <mxGeometry x="360" y="520" width="80" height="40" as="geometry"/>
                </mxCell>
                <mxCell id="140" value="b2" style="rounded=0;whiteSpace=wrap;html=1;fontFamily=Lucida Console;align=center;strokeColor=none;fillColor=none;fontSize=12;" vertex="1" parent="1">
                    <mxGeometry x="360" y="560" width="80" height="40" as="geometry"/>
                </mxCell>
                <mxCell id="141" value="" style="rounded=1;whiteSpace=wrap;html=1;fontFamily=Lucida Console;align=right;shadow=0;sketch=1;fillStyle=cross-hatch;fillColor=none;" vertex="1" parent="1">
                    <mxGeometry y="600" width="160" height="40" as="geometry"/>
                </mxCell>
                <mxCell id="142" value="" style="rounded=1;whiteSpace=wrap;html=1;fontFamily=Lucida Console;align=right;shadow=0;sketch=1;fillStyle=cross-hatch;fillColor=none;" vertex="1" parent="1">
                    <mxGeometry x="180" y="600" width="160" height="40" as="geometry"/>
                </mxCell>
                <mxCell id="143" value="" style="rounded=1;whiteSpace=wrap;html=1;fontFamily=Lucida Console;align=right;shadow=0;sketch=1;fillStyle=cross-hatch;fillColor=none;" vertex="1" parent="1">
                    <mxGeometry x="359.71" y="600" width="160" height="40" as="geometry"/>
                </mxCell>
                <mxCell id="144" value="" style="rounded=1;whiteSpace=wrap;html=1;fontFamily=Lucida Console;align=right;shadow=0;sketch=1;fillStyle=cross-hatch;fillColor=#666666;" vertex="1" parent="1">
                    <mxGeometry x="0.28999999999999915" y="600" width="159.71" height="40" as="geometry"/>
                </mxCell>
                <mxCell id="147" value="&lt;pre&gt;&lt;span class=&quot;n&quot;&gt;b2.reset()&lt;/span&gt;&lt;span class=&quot;p&quot;&gt;&lt;/span&gt;&lt;/pre&gt;" style="rounded=0;whiteSpace=wrap;html=1;fontFamily=Lucida Console;align=right;strokeColor=none;fillColor=none;fontSize=12;" vertex="1" parent="1">
                    <mxGeometry x="-200" y="600" width="200" height="40" as="geometry"/>
                </mxCell>
                <mxCell id="148" value="" style="rounded=1;whiteSpace=wrap;html=1;fontFamily=Lucida Console;align=right;shadow=0;sketch=1;fillStyle=cross-hatch;fillColor=none;" vertex="1" parent="1">
                    <mxGeometry x="1.1102230246251565e-16" y="680" width="160" height="40" as="geometry"/>
                </mxCell>
                <mxCell id="149" value="" style="rounded=1;whiteSpace=wrap;html=1;fontFamily=Lucida Console;align=right;shadow=0;sketch=1;fillStyle=cross-hatch;fillColor=none;" vertex="1" parent="1">
                    <mxGeometry x="180" y="680" width="160" height="40" as="geometry"/>
                </mxCell>
                <mxCell id="150" value="" style="rounded=1;whiteSpace=wrap;html=1;fontFamily=Lucida Console;align=right;shadow=0;sketch=1;fillStyle=cross-hatch;fillColor=none;" vertex="1" parent="1">
                    <mxGeometry x="359.71" y="680" width="160" height="40" as="geometry"/>
                </mxCell>
                <mxCell id="151" value="" style="rounded=1;whiteSpace=wrap;html=1;fontFamily=Lucida Console;align=right;shadow=0;sketch=1;fillStyle=cross-hatch;fillColor=#666666;" vertex="1" parent="1">
                    <mxGeometry x="0.28999999999999926" y="680" width="159.71" height="40" as="geometry"/>
                </mxCell>
                <mxCell id="152" value="" style="rounded=1;whiteSpace=wrap;html=1;fontFamily=Lucida Console;align=right;shadow=0;sketch=1;fillStyle=cross-hatch;fillColor=#666666;" vertex="1" parent="1">
                    <mxGeometry x="180.58" y="680" width="80" height="40" as="geometry"/>
                </mxCell>
                <mxCell id="153" value="b0" style="rounded=0;whiteSpace=wrap;html=1;fontFamily=Lucida Console;align=center;strokeColor=none;fillColor=none;fontSize=12;" vertex="1" parent="1">
                    <mxGeometry x="49.85999999999999" y="560" width="60" height="40" as="geometry"/>
                </mxCell>
                <mxCell id="154" value="b0" style="rounded=0;whiteSpace=wrap;html=1;fontFamily=Lucida Console;align=center;strokeColor=none;fillColor=none;fontSize=12;" vertex="1" parent="1">
                    <mxGeometry x="49.859999999999985" y="640" width="60" height="40" as="geometry"/>
                </mxCell>
                <mxCell id="155" value="b0" style="rounded=0;whiteSpace=wrap;html=1;fontFamily=Lucida Console;align=center;strokeColor=none;fillColor=none;fontSize=12;" vertex="1" parent="1">
                    <mxGeometry x="49.859999999999985" y="720" width="60" height="40" as="geometry"/>
                </mxCell>
                <mxCell id="156" value="bx" style="rounded=0;whiteSpace=wrap;html=1;fontFamily=Lucida Console;align=center;strokeColor=none;fillColor=none;fontSize=12;" vertex="1" parent="1">
                    <mxGeometry x="180.58" y="720" width="79.42" height="40" as="geometry"/>
                </mxCell>
                <mxCell id="157" value="&lt;pre&gt;&lt;span class=&quot;n&quot;&gt;allocateBuffer(1024*1024*32)&lt;/span&gt;&lt;span class=&quot;p&quot;&gt;&lt;/span&gt;&lt;/pre&gt;" style="rounded=0;whiteSpace=wrap;html=1;fontFamily=Lucida Console;align=right;strokeColor=none;fillColor=none;fontSize=12;" vertex="1" parent="1">
                    <mxGeometry x="-200" y="680" width="200" height="40" as="geometry"/>
                </mxCell>
                <mxCell id="158" value="" style="rounded=1;whiteSpace=wrap;html=1;fontFamily=Lucida Console;align=right;shadow=0;sketch=1;fillStyle=cross-hatch;fillColor=none;" vertex="1" parent="1">
                    <mxGeometry x="0.5799999999999983" y="760" width="160" height="40" as="geometry"/>
                </mxCell>
                <mxCell id="159" value="" style="rounded=1;whiteSpace=wrap;html=1;fontFamily=Lucida Console;align=right;shadow=0;sketch=1;fillStyle=cross-hatch;fillColor=none;" vertex="1" parent="1">
                    <mxGeometry x="180.57999999999998" y="760" width="160" height="40" as="geometry"/>
                </mxCell>
                <mxCell id="160" value="" style="rounded=1;whiteSpace=wrap;html=1;fontFamily=Lucida Console;align=right;shadow=0;sketch=1;fillStyle=cross-hatch;fillColor=none;" vertex="1" parent="1">
                    <mxGeometry x="360.29" y="760" width="160" height="40" as="geometry"/>
                </mxCell>
                <mxCell id="161" value="&lt;pre&gt;&lt;span class=&quot;n&quot;&gt;b0.reset(), bx.reset()&lt;/span&gt;&lt;span class=&quot;p&quot;&gt;&lt;/span&gt;&lt;/pre&gt;" style="rounded=0;whiteSpace=wrap;html=1;fontFamily=Lucida Console;align=right;strokeColor=none;fillColor=none;fontSize=12;" vertex="1" parent="1">
                    <mxGeometry x="-200" y="760" width="200" height="40" as="geometry"/>
                </mxCell>
            </root>
        </mxGraphModel>
    </diagram>
</mxfile>